# xmcd CD database file
#
# Track frame offsets:
#	150
#	17531
#	27032
#	33954
#	50512
#	59563
#	68604
#	77514
#	88089
#	98620
#	107513
#	119159
#	132411
#	146238
#	157188
#	166415
#	178636
#	186823
#	205284
#	212410
#	225625
#	238923
#	248184
#	261395
#	272560
#	284883
#	294050
#	307823
#	318681
#
# Disc length: 4408 seconds
#
# Revision: 1
# Processed by: cddbd v1.5.2PL0 Copyright (c) Steve Scherf et al.
# Submitted via: CDex 1.51
#
DISCID=a911361d
DTITLE=DJ KENTA - Light
DYEAR=2006
DGENRE=Jazz
TTITLE0=High and Dry - Pete Kazma feat. Bilal
TTITLE1=Emergencey - Kelis feat. Rafael Saadiq
TTITLE2=I Want You Back - Raphael Saadiq feat. Teedra Moses
TTITLE3=Butterflies(Track Masters Remix) - Michael Jackson feat. Eve
TTITLE4=Wanna' Get - Reggie Watts
TTITLE5=I Love You - As One
TTITLE6=Jazzical Healing - JM Dee Beat feat. A.Tassel and  G.Naturel
TTITLE7=Persistence - Headnodic
TTITLE8=If I Fall - Naked Music NYC
TTITLE9=Sum Same - The Rebirth
TTITLE10=Imgonnacame(Blue Chai Martini Mix) - Alison Crockett
TTITLE11=Please Baby Don't - Sergio Mendes feat. John Legend
TTITLE12=Beyond The Moon - Gerardo Frisina
TTITLE13=Unbelievable - Heavy
TTITLE14=Musiq - moO feat. Laila Adele
TTITLE15=Pretty Brown Skin - Roy Ayers feat. Betty Wright
TTITLE16=Metamorph - Andrew J and Kaltenecker
TTITLE17=Frontin' - Jamie Cullum
TTITLE18=This Could Be The Start Of Something(Povo Remix) - The Five Corners Quintet
TTITLE19=Feel It(Jazz Jeff Soulful Remix) - Black Eyed Peas
TTITLE20=Selfish(Remix) - Slum Village feat. Toto
TTITLE21=More Than You Know(Remix) - Emanon feat. C.L.Smooth
TTITLE22=So Far To Go - J Dilla feat. Common and D'Angelo
TTITLE23=Awesome - Dwele
TTITLE24=Beautiful U R - Javier
TTITLE25=Beautiful, Loved and Blessed - Tamar feat. Prince
TTITLE26=I Call It Love - Lionel Richie
TTITLE27=You're Beautifule(Acoustic Club Mix) - James Blunt
TTITLE28=Turn Your Lights Down Low - Lauryn Hill and Bob Marley
EXTD=YEAR: 2006
EXTT0=
EXTT1=
EXTT2=
EXTT3=
EXTT4=
EXTT5=
EXTT6=
EXTT7=
EXTT8=
EXTT9=
EXTT10=
EXTT11=
EXTT12=
EXTT13=
EXTT14=
EXTT15=
EXTT16=
EXTT17=
EXTT18=
EXTT19=
EXTT20=
EXTT21=
EXTT22=
EXTT23=
EXTT24=
EXTT25=
EXTT26=
EXTT27=
EXTT28=
PLAYORDER=
